<?xml version="1.0" encoding="UTF-8" standalone="no"?>
<!DOCTYPE svg PUBLIC "-//W3C//DTD SVG 1.1//EN" "http://www.w3.org/Graphics/SVG/1.1/DTD/svg11.dtd">
<svg width="100%" height="100%" viewBox="0 0 843 534" version="1.1" xmlns="http://www.w3.org/2000/svg" xmlns:xlink="http://www.w3.org/1999/xlink" xml:space="preserve" xmlns:serif="http://www.serif.com/" style="fill-rule:evenodd;clip-rule:evenodd;stroke-linejoin:round;stroke-miterlimit:2;">
    <g transform="matrix(1,0,0,1,-3104.89,-13554.2)">
        <g transform="matrix(1,0,0,1,-5000.59,11885.2)">
            <g transform="matrix(1.35053,0,0,1.35053,-842.737,317.704)">
                <g>
                    <g transform="matrix(0.414154,0,0,0.414154,5654.31,401.805)">
                        <path d="M3178.94,1749.38C3173.57,1754.28 3168.67,1759.75 3162.84,1764.1C3157.18,1768.33 3151.04,1771.98 3144.65,1775C3138.36,1777.99 3131.74,1780.34 3124.99,1782.05C3118.28,1783.76 3111.38,1784.81 3104.47,1785.21C3097.57,1785.61 3090.59,1785.36 3083.73,1784.44C3076.83,1783.52 3069.99,1781.95 3063.4,1779.71C3056.71,1777.44 3050.2,1774.53 3044.09,1770.98C3044.06,1770.96 3026.43,1758.21 3026.42,1758.19C3021.51,1752.84 3016.05,1747.94 3011.7,1742.13C3007.46,1736.47 3003.81,1730.33 3000.78,1723.95C2997.79,1717.66 2995.44,1711.04 2993.72,1704.29C2992.02,1697.59 2990.97,1690.68 2990.57,1683.78C2990.16,1676.87 2990.42,1669.89 2991.34,1663.04C2992.26,1656.14 2993.84,1649.29 2996.08,1642.69C2998.35,1636 3001.26,1629.48 3004.82,1623.38C3011.49,1611.92 3011.71,1612.03 3020.72,1602.31C3059.71,1560.22 3095.3,1537.03 3102.2,1532.43C3156.77,1496.07 3203.76,1481.01 3218.97,1476.22C3370.49,1428.5 3493.74,1473.42 3515.85,1481.4C3638.67,1525.69 3737.77,1620.72 3785.55,1741.53C3830.99,1856.44 3826.52,1985.35 3773.81,2094.63C3693.2,2261.74 3513.62,2360.84 3327.97,2331.53C3235.07,2316.87 3145.38,2269.32 3079.73,2189.6C3076.14,2185.24 3075.93,2185.3 3074.05,2179.97C3072.85,2176.58 3072.35,2172.87 3072.52,2169.28C3073.09,2157.59 3080.38,2150.99 3081.65,2149.84C3082.93,2148.68 3090.3,2142.01 3101.95,2142.58C3105.54,2142.76 3109.18,2143.62 3112.43,2145.15C3118.5,2148.03 3118.12,2148.63 3122.95,2153.3C3257.99,2284.11 3468.01,2277.66 3588.85,2146.95C3685.33,2042.6 3696.31,1888.98 3620.73,1777.42C3612.75,1765.65 3565.72,1693.84 3469.33,1664.53C3418.78,1649.17 3377.11,1652.43 3368.31,1653.06C3318.49,1656.62 3282.76,1672.75 3261.79,1683.62C3239.06,1695.39 3222.84,1707.87 3208.96,1719.59C3194.05,1732.18 3183.93,1743.58 3178.94,1749.38ZM3178.94,1749.38C3178.93,1749.39 3178.89,1749.43 3178.88,1749.44C3178.9,1749.42 3178.92,1749.4 3178.94,1749.38Z" style="fill:rgb(221,168,83);"/>
                    </g>
                    <g transform="matrix(-0.414154,-5.07193e-17,5.07193e-17,-0.414154,8220.64,1994.51)">
                        <path d="M3178.94,1749.38C3178.93,1749.39 3178.89,1749.43 3178.88,1749.44C3178.9,1749.42 3178.92,1749.4 3178.94,1749.38ZM3178.94,1749.38C3173.57,1754.28 3168.67,1759.75 3162.84,1764.1C3157.18,1768.33 3151.04,1771.97 3144.65,1775C3138.36,1777.99 3131.74,1780.34 3124.99,1782.05C3118.28,1783.76 3111.38,1784.81 3104.47,1785.21C3097.56,1785.61 3090.59,1785.36 3083.73,1784.44C3076.83,1783.52 3069.99,1781.95 3063.4,1779.71C3056.71,1777.44 3050.2,1774.53 3044.09,1770.98C3044.06,1770.96 3026.43,1758.21 3026.42,1758.19C3021.51,1752.84 3016.05,1747.94 3011.7,1742.13C3007.46,1736.47 3003.81,1730.33 3000.78,1723.95C2997.79,1717.66 2995.44,1711.04 2993.72,1704.29C2992.02,1697.59 2990.97,1690.68 2990.57,1683.78C2990.16,1676.87 2990.42,1669.89 2991.34,1663.04C2992.26,1656.14 2993.84,1649.29 2996.08,1642.69C2998.35,1636 3001.26,1629.48 3004.82,1623.38C3011.48,1611.92 3011.71,1612.03 3020.72,1602.31C3057.93,1562.19 3091.52,1539.82 3097.16,1535.96C3150.13,1499.75 3195.67,1484.28 3210.18,1479.41C3356.74,1430.24 3477.53,1469.6 3500.73,1477.12C3617.22,1514.9 3715.01,1598.29 3769.2,1708.53C3823.49,1818.95 3828.08,1943.19 3789.58,2050.8C3727.17,2225.23 3558.62,2342.54 3371.89,2332.64C3288.93,2328.24 3208.73,2298.2 3144.01,2246.81C3138.85,2242.72 3138.42,2243.04 3134.97,2237.44C3133.09,2234.37 3131.82,2230.86 3131.24,2227.31C3129.34,2215.74 3135.1,2207.77 3136.1,2206.38C3137.11,2204.98 3142.92,2196.93 3154.42,2195.04C3157.97,2194.46 3161.7,2194.54 3165.2,2195.36C3171.47,2196.82 3171.27,2197.4 3176.73,2200.8C3272.19,2260.38 3380.32,2263.42 3466.07,2232.11C3575.03,2192.34 3656.79,2094.71 3670.3,1976.16C3680.98,1882.45 3648.29,1795.93 3587.46,1734.74C3518.46,1665.34 3440.01,1656.17 3424.09,1654.09C3336.22,1642.58 3273.77,1677.31 3264.01,1682.26C3236.72,1696.11 3218.68,1711.26 3208.29,1720.11C3193.74,1732.5 3183.84,1743.67 3178.94,1749.38Z" style="fill:rgb(30,84,159);"/>
                    </g>
                </g>
            </g>
        </g>
    </g>
</svg>
