<?xml version="1.0" encoding="UTF-8" standalone="no"?>
<!DOCTYPE svg PUBLIC "-//W3C//DTD SVG 1.1//EN" "http://www.w3.org/Graphics/SVG/1.1/DTD/svg11.dtd">
<svg width="100%" height="100%" viewBox="0 0 439 275" version="1.1" xmlns="http://www.w3.org/2000/svg" xmlns:xlink="http://www.w3.org/1999/xlink" xml:space="preserve" xmlns:serif="http://www.serif.com/" style="fill-rule:evenodd;clip-rule:evenodd;stroke-linejoin:round;stroke-miterlimit:2;">
    <g transform="matrix(1,0,0,1,1510.58,-2085.16)">
        <g transform="matrix(1,0,0,1,-2277.58,2578.15)">
            <g transform="matrix(0.298193,0,0,0.298193,62.4778,-929.226)">
                <path d="M3166.1,1737.94C3161.58,1742.06 3157.46,1746.66 3152.56,1750.31C3148.15,1753.6 3123.03,1772.36 3086.03,1767.41C3068.02,1765 3055.14,1757.51 3052.7,1756.1C3050.18,1754.63 3036.63,1746.75 3025.47,1731.85C3022.18,1727.45 3003.39,1702.35 3008.36,1665.35C3010.77,1647.33 3018.28,1634.43 3019.69,1632C3025.82,1621.47 3026.16,1621.68 3034.45,1612.77C3076.11,1567.98 3117.98,1540.2 3154.04,1521.26C3271.47,1459.6 3401.8,1458.66 3504.72,1493.45C3690.19,1556.16 3817.35,1735.11 3804,1936.67C3787.6,2184.22 3564.07,2362.89 3324.68,2324.24C3283.56,2317.6 3172.59,2293.38 3083.06,2186.6C3080,2182.95 3079.85,2182.98 3078.26,2178.49C3077.79,2177.15 3075.05,2169.4 3079.13,2160.69C3079.45,2160.01 3081.19,2156.29 3084.66,2153.16C3085.73,2152.18 3091.93,2146.59 3101.72,2147.06C3104.74,2147.21 3107.8,2147.93 3110.53,2149.22C3115.82,2151.72 3115.49,2152.24 3119.64,2156.34C3262.49,2297.6 3491.38,2284.76 3612.32,2134.14C3711.67,2010.43 3703.61,1833.72 3593.62,1723.37C3504.36,1633.82 3371.68,1613.46 3265.42,1663.3C3261.1,1665.33 3225.25,1680.7 3187.36,1715.91C3176.43,1726.07 3168.91,1734.72 3166.1,1737.94Z" style="fill:rgb(30,84,159);"/>
            </g>
            <g transform="matrix(-0.298193,-3.65181e-17,3.65181e-17,-0.298193,1910.24,217.53)">
                <path d="M3166.1,1737.94C3161.58,1742.06 3157.46,1746.66 3152.56,1750.31C3148.15,1753.6 3123.03,1772.36 3086.03,1767.41C3068.02,1765 3055.14,1757.51 3052.7,1756.1C3050.18,1754.63 3036.63,1746.75 3025.47,1731.85C3022.18,1727.45 3003.39,1702.35 3008.36,1665.35C3010.77,1647.33 3018.28,1634.43 3019.69,1632C3025.82,1621.47 3026.16,1621.68 3034.45,1612.77C3076.11,1567.98 3117.98,1540.2 3154.04,1521.26C3271.47,1459.6 3401.8,1458.66 3504.72,1493.45C3690.19,1556.16 3817.35,1735.11 3804,1936.67C3787.6,2184.22 3564.07,2362.89 3324.68,2324.24C3283.56,2317.6 3172.59,2293.38 3083.06,2186.6C3080,2182.95 3079.85,2182.98 3078.26,2178.49C3077.79,2177.15 3075.05,2169.4 3079.13,2160.69C3079.45,2160.01 3081.19,2156.29 3084.66,2153.16C3085.73,2152.18 3091.93,2146.59 3101.72,2147.06C3104.74,2147.21 3107.8,2147.93 3110.53,2149.22C3115.82,2151.72 3115.49,2152.24 3119.64,2156.34C3262.49,2297.6 3491.38,2284.76 3612.32,2134.14C3711.67,2010.43 3703.61,1833.72 3593.62,1723.37C3504.36,1633.82 3371.68,1613.46 3265.42,1663.3C3261.1,1665.33 3225.25,1680.7 3187.36,1715.91C3176.43,1726.06 3168.91,1734.71 3166.1,1737.94C3166.1,1737.94 3166.1,1737.94 3166.1,1737.94Z" style="fill:rgb(30,84,159);"/>
            </g>
            <g transform="matrix(0.991314,-0.976336,0.833645,0.846434,-616.051,308.193)">
                <path d="M1183.57,501.185L1182.35,501.185L1182.35,498.121L1184.12,498.121L1183.57,501.185Z" style="fill:rgb(30,84,159);"/>
            </g>
        </g>
    </g>
</svg>
