<?xml version="1.0" encoding="UTF-8" standalone="no"?>
<!DOCTYPE svg PUBLIC "-//W3C//DTD SVG 1.1//EN" "http://www.w3.org/Graphics/SVG/1.1/DTD/svg11.dtd">
<svg width="100%" height="100%" viewBox="0 0 1605 430" version="1.1" xmlns="http://www.w3.org/2000/svg" xmlns:xlink="http://www.w3.org/1999/xlink" xml:space="preserve" xmlns:serif="http://www.serif.com/" style="fill-rule:evenodd;clip-rule:evenodd;stroke-linejoin:round;stroke-miterlimit:2;">
    <g transform="matrix(1,0,0,1,-1730.3,-6992.01)">
        <g transform="matrix(1,0,0,1,-4944.55,5857.42)">
            <g transform="matrix(10.6949,0,0,10.6949,-6314.51,-9322.39)">
                <path d="M1224.48,982.686L1238.41,1003.78L1238.41,982.49C1238.41,981.107 1238.71,980.069 1239.31,979.378C1239.9,978.686 1240.7,978.34 1241.71,978.34C1242.75,978.34 1243.58,978.686 1244.18,979.378C1244.78,980.069 1245.08,981.107 1245.08,982.49L1245.08,1010.64C1245.08,1013.78 1243.78,1015.35 1241.17,1015.35C1240.52,1015.35 1239.94,1015.26 1239.42,1015.07C1238.89,1014.88 1238.41,1014.59 1237.95,1014.18C1237.5,1013.77 1237.07,1013.3 1236.68,1012.75C1236.29,1012.21 1235.9,1011.65 1235.51,1011.08L1221.91,990.23L1221.91,1011.2C1221.91,1012.57 1221.59,1013.6 1220.96,1014.3C1220.33,1015 1219.51,1015.35 1218.52,1015.35C1217.49,1015.35 1216.67,1015 1216.05,1014.29C1215.43,1013.58 1215.12,1012.55 1215.12,1011.2L1215.12,983.589C1215.12,982.417 1215.26,981.497 1215.52,980.83C1215.82,980.098 1216.34,979.5 1217.05,979.036C1217.77,978.572 1218.54,978.34 1219.37,978.34C1220.02,978.34 1220.58,978.446 1221.05,978.657C1221.51,978.869 1221.92,979.154 1222.27,979.512C1222.62,979.87 1222.97,980.334 1223.34,980.903C1223.71,981.473 1224.08,982.067 1224.48,982.686Z" style="fill:rgb(30,84,159);fill-rule:nonzero;stroke:rgb(30,84,159);stroke-width:1.17px;"/>
            </g>
        </g>
        <g transform="matrix(1,0,0,1,-4944.55,5857.42)">
            <g transform="matrix(10.6949,0,0,10.6949,-6314.51,-9322.39)">
                <path d="M1259.22,992.036L1259.22,1011.3C1259.22,1012.63 1258.9,1013.64 1258.26,1014.33C1257.63,1015.01 1256.82,1015.35 1255.85,1015.35C1254.87,1015.35 1254.08,1015 1253.47,1014.3C1252.86,1013.6 1252.55,1012.6 1252.55,1011.3L1252.55,992.232C1252.55,990.913 1252.86,989.92 1253.47,989.253C1254.08,988.586 1254.87,988.252 1255.85,988.252C1256.82,988.252 1257.63,988.586 1258.26,989.253C1258.9,989.92 1259.22,990.848 1259.22,992.036ZM1255.92,985.151C1254.99,985.151 1254.2,984.867 1253.54,984.297C1252.88,983.727 1252.55,982.922 1252.55,981.88C1252.55,980.936 1252.89,980.159 1253.56,979.548C1254.24,978.938 1255.03,978.633 1255.92,978.633C1256.78,978.633 1257.55,978.91 1258.21,979.463C1258.88,980.016 1259.22,980.822 1259.22,981.88C1259.22,982.905 1258.89,983.707 1258.24,984.285C1257.59,984.863 1256.82,985.151 1255.92,985.151Z" style="fill:rgb(221,168,83);fill-rule:nonzero;stroke:rgb(221,168,83);stroke-width:0.97px;"/>
            </g>
        </g>
        <g transform="matrix(1,0,0,1,-4944.55,5857.42)">
            <g transform="matrix(10.6949,0,0,10.6949,-6314.51,-9322.39)">
                <path d="M1266.1,1011.3L1266.1,982.393C1266.1,981.058 1266.4,980.049 1266.99,979.365C1267.59,978.682 1268.39,978.34 1269.4,978.34C1270.41,978.34 1271.22,978.678 1271.84,979.353C1272.46,980.029 1272.77,981.042 1272.77,982.393L1272.77,1011.3C1272.77,1012.65 1272.45,1013.66 1271.83,1014.34C1271.2,1015.01 1270.39,1015.35 1269.4,1015.35C1268.42,1015.35 1267.63,1015 1267.02,1014.3C1266.41,1013.6 1266.1,1012.6 1266.1,1011.3Z" style="fill:rgb(221,168,83);fill-rule:nonzero;stroke:rgb(221,168,83);stroke-width:0.97px;"/>
            </g>
        </g>
        <g transform="matrix(1,0,0,1,-4944.55,5857.42)">
            <g transform="matrix(10.6949,0,0,10.6949,-6334.61,-9405.66)">
                <path d="M1346.2,991.987L1346.2,992.793C1347.46,991.247 1348.76,990.112 1350.11,989.387C1351.46,988.663 1352.99,988.301 1354.7,988.301C1356.75,988.301 1358.64,988.83 1360.36,989.888C1362.09,990.946 1363.45,992.492 1364.45,994.526C1365.45,996.561 1365.95,998.97 1365.95,1001.75C1365.95,1003.8 1365.67,1005.69 1365.09,1007.4C1364.51,1009.12 1363.72,1010.56 1362.71,1011.73C1361.7,1012.89 1360.51,1013.78 1359.13,1014.41C1357.76,1015.04 1356.28,1015.35 1354.7,1015.35C1352.8,1015.35 1351.2,1014.97 1349.9,1014.2C1348.61,1013.44 1347.38,1012.32 1346.2,1010.84L1346.2,1020.85C1346.2,1023.77 1345.14,1025.24 1343.01,1025.24C1341.75,1025.24 1340.92,1024.86 1340.52,1024.1C1340.11,1023.35 1339.9,1022.25 1339.9,1020.8L1339.9,992.036C1339.9,990.767 1340.18,989.819 1340.74,989.192C1341.29,988.565 1342.05,988.252 1343.01,988.252C1343.95,988.252 1344.72,988.573 1345.31,989.216C1345.91,989.859 1346.2,990.783 1346.2,991.987ZM1359.27,1001.68C1359.27,999.922 1359,998.412 1358.46,997.151C1357.92,995.89 1357.18,994.921 1356.23,994.246C1355.27,993.57 1354.22,993.232 1353.06,993.232C1351.23,993.232 1349.67,993.957 1348.41,995.405C1347.15,996.854 1346.52,998.986 1346.52,1001.8C1346.52,1004.46 1347.15,1006.52 1348.4,1007.99C1349.65,1009.46 1351.21,1010.2 1353.06,1010.2C1354.17,1010.2 1355.2,1009.88 1356.14,1009.24C1357.08,1008.59 1357.84,1007.63 1358.41,1006.34C1358.98,1005.06 1359.27,1003.5 1359.27,1001.68Z" style="fill:rgb(221,168,83);fill-rule:nonzero;stroke:rgb(221,168,83);stroke-width:0.97px;"/>
            </g>
        </g>
        <g transform="matrix(1,0,0,1,-4944.55,5857.42)">
            <g transform="matrix(1.38888,0,0,1.38888,6279.55,1843.68)">
                <g transform="matrix(0.298193,0,0,0.298193,62.4778,-929.226)">
                    <path d="M3085.53,2154.17C3086.51,2153.27 3092.02,2148.26 3101.27,2148.7C3104.14,2148.84 3107.04,2149.5 3109.66,2150.66C3115.32,2153.17 3115,2153.72 3119.4,2158.06C3259.76,2296.69 3482.88,2287.84 3607.07,2145C3711.01,2025.46 3711.63,1849.09 3607.91,1732.42C3556.7,1674.82 3487.42,1640.57 3413.98,1633.31C3330.7,1625.07 3271.03,1654.54 3253.31,1663.42C3247.69,1666.24 3220.2,1679.64 3188.59,1707.66C3172.5,1721.92 3162.49,1734.1 3162.03,1734.53C3157.78,1738.41 3153.9,1742.72 3149.3,1746.16C3145.15,1749.26 3121.49,1766.91 3086.65,1762.18C3069.69,1759.88 3057.56,1752.79 3055.27,1751.45C3055.23,1751.43 3041.29,1741.31 3041.28,1741.3C3037.4,1737.05 3033.09,1733.17 3029.65,1728.57C3026.55,1724.42 3008.9,1700.76 3013.63,1665.92C3015.93,1648.96 3023.02,1636.83 3024.35,1634.54C3029.8,1625.22 3030.05,1625.36 3037.37,1617.42C3077.97,1573.45 3115.69,1549.7 3130.97,1540.35C3162.41,1521.1 3212.39,1495.45 3281.21,1482.72C3320.09,1475.53 3453.55,1455.21 3591.32,1538.77C3717.51,1615.31 3799.99,1751.78 3801.31,1904.98C3803.51,2161.1 3581.47,2356.16 3335.66,2323.75C3232.8,2310.19 3144.55,2257.91 3084.08,2185.67C3083.19,2184.61 3078.16,2178.6 3078.59,2169.35C3079.01,2160.09 3084.54,2155.07 3085.53,2154.17Z" style="fill:rgb(30,84,159);"/>
                </g>
                <g transform="matrix(-0.298193,-3.65181e-17,3.65181e-17,-0.298193,1910.24,217.53)">
                    <path d="M3085.53,2154.17C3086.51,2153.27 3092.02,2148.26 3101.27,2148.7C3104.14,2148.84 3107.04,2149.5 3109.66,2150.66C3115.32,2153.17 3115,2153.72 3119.4,2158.06C3259.76,2296.69 3482.88,2287.84 3607.07,2145C3711.01,2025.46 3711.63,1849.09 3607.91,1732.42C3556.7,1674.82 3487.42,1640.57 3413.98,1633.31C3330.7,1625.07 3271.03,1654.54 3253.31,1663.42C3247.69,1666.24 3220.2,1679.64 3188.59,1707.66C3172.5,1721.92 3162.49,1734.1 3162.03,1734.53C3157.78,1738.41 3153.9,1742.72 3149.3,1746.16C3145.15,1749.26 3121.49,1766.91 3086.65,1762.18C3069.69,1759.88 3057.56,1752.79 3055.27,1751.45C3055.23,1751.43 3041.29,1741.31 3041.28,1741.3C3037.4,1737.05 3033.09,1733.17 3029.65,1728.57C3026.55,1724.42 3008.9,1700.76 3013.63,1665.92C3015.93,1648.96 3023.02,1636.83 3024.35,1634.54C3029.8,1625.22 3030.05,1625.36 3037.37,1617.42C3077.97,1573.45 3115.69,1549.7 3130.97,1540.35C3162.41,1521.1 3212.39,1495.45 3281.21,1482.72C3320.09,1475.53 3453.55,1455.21 3591.32,1538.77C3717.51,1615.31 3799.99,1751.78 3801.31,1904.98C3803.51,2161.1 3581.47,2356.16 3335.66,2323.75C3232.8,2310.19 3144.55,2257.91 3084.08,2185.67C3083.19,2184.61 3078.16,2178.6 3078.59,2169.35C3079.01,2160.09 3084.54,2155.07 3085.53,2154.17Z" style="fill:rgb(30,84,159);"/>
                </g>
                <g transform="matrix(0.991314,-0.976336,0.833645,0.846434,-616.051,308.193)">
                    <path d="M1183.53,501.185L1182.35,501.185L1182.35,498.121L1184.12,498.121L1183.53,501.185Z" style="fill:rgb(30,84,159);"/>
                </g>
            </g>
        </g>
    </g>
</svg>
