<svg xmlns="http://www.w3.org/2000/svg" xmlns:xlink="http://www.w3.org/1999/xlink" width="118" height="119" viewBox="0 0 118 119">
  <defs>
    <clipPath id="clip-path">
      <rect id="Rectangle_1380" data-name="Rectangle 1380" width="118" height="117" transform="translate(913 1232)" fill="#364049"/>
    </clipPath>
    <clipPath id="clip-path-2">
      <rect id="Rectangle_1390" data-name="Rectangle 1390" width="114" height="114" transform="translate(914.999 1237)" fill="#364049"/>
    </clipPath>
  </defs>
  <g id="Group_3448" data-name="Group 3448" transform="translate(-913 -1232)">
    <g id="Mask_Group_110" data-name="Mask Group 110" opacity="0.1" clip-path="url(#clip-path)">
      <g id="responsive" transform="translate(911.097 1229.597)">
        <path id="Path_14118" data-name="Path 14118" d="M15.226,95.161H9.516a1.9,1.9,0,0,0,0,3.806h5.71a1.9,1.9,0,0,0,0-3.806Z" fill="#364049"/>
        <path id="Path_14119" data-name="Path 14119" d="M22.839,95.161h-1.9a1.9,1.9,0,0,0,0,3.806h1.9a1.9,1.9,0,0,0,0-3.806Z" fill="#364049"/>
        <path id="Path_14120" data-name="Path 14120" d="M112.29,39.968h-3.806V24.742a7.623,7.623,0,0,0-7.613-7.613H20.935a7.621,7.621,0,0,0-7.613,7.613V59H9.516A7.621,7.621,0,0,0,1.9,66.613V97.065a7.621,7.621,0,0,0,7.613,7.613H28.548a7.623,7.623,0,0,0,7.613-7.613v-5.71H52.755L51.8,95.161H45.677a1.9,1.9,0,0,0-1.9,1.9v5.71a1.9,1.9,0,0,0,1.9,1.9H112.29a7.623,7.623,0,0,0,7.613-7.613V47.581a7.623,7.623,0,0,0-7.613-7.613Zm-79.935,57.1a3.811,3.811,0,0,1-3.806,3.806H9.516A3.811,3.811,0,0,1,5.71,97.065V66.613a3.811,3.811,0,0,1,3.806-3.806H11.95l1.47,4.408a1.9,1.9,0,0,0,1.806,1.3h7.613a1.9,1.9,0,0,0,1.806-1.3l1.47-4.408h2.434a3.811,3.811,0,0,1,3.806,3.806ZM15.963,62.806H22.1l-.635,1.9H16.6Zm20.2,24.742v-5.71H70.419v5.71Zm34.258,3.806v3.806H70l-.952-3.806Zm-4.342,3.806H55.729l.952-3.806h8.446Zm-18.5,5.71v-1.9H70.66a7.606,7.606,0,0,0,.785,1.9Zm22.839-53.29V78.032H36.161V66.613A7.623,7.623,0,0,0,28.548,59H17.129V24.742a3.811,3.811,0,0,1,3.806-3.806h79.935a3.811,3.811,0,0,1,3.806,3.806V39.968H78.032A7.623,7.623,0,0,0,70.419,47.581ZM116.1,97.065a3.811,3.811,0,0,1-3.806,3.806H78.032a3.811,3.811,0,0,1-3.806-3.806V47.581a3.811,3.811,0,0,1,3.806-3.806H112.29a3.811,3.811,0,0,1,3.806,3.806Z" fill="#364049"/>
        <path id="Path_14121" data-name="Path 14121" d="M112.29,45.677H78.032a1.9,1.9,0,0,0-1.9,1.9V91.355a1.9,1.9,0,0,0,1.9,1.9H112.29a1.9,1.9,0,0,0,1.9-1.9V47.581A1.9,1.9,0,0,0,112.29,45.677Zm-1.9,43.774H79.935V49.484h30.452Z" fill="#364049"/>
        <circle id="Ellipse_318" data-name="Ellipse 318" cx="1.903" cy="1.903" r="1.903" transform="translate(91.355 95.161)" fill="#364049"/>
      </g>
    </g>
    <g id="Mask_Group_109" data-name="Mask Group 109" clip-path="url(#clip-path-2)">
      <g id="responsive-2" data-name="responsive" transform="translate(913.16 1235.161)">
        <path id="Path_14114" data-name="Path 14114" d="M14.71,91.935H9.194a1.839,1.839,0,0,0,0,3.677H14.71a1.839,1.839,0,0,0,0-3.677Z" fill="#364049"/>
        <path id="Path_14115" data-name="Path 14115" d="M22.065,91.935H20.226a1.839,1.839,0,1,0,0,3.677h1.839a1.839,1.839,0,1,0,0-3.677Z" fill="#364049"/>
        <path id="Path_14116" data-name="Path 14116" d="M108.484,38.613h-3.677V23.9a7.364,7.364,0,0,0-7.355-7.355H20.226A7.363,7.363,0,0,0,12.871,23.9V57H9.194a7.363,7.363,0,0,0-7.355,7.355V93.774a7.363,7.363,0,0,0,7.355,7.355H27.581a7.365,7.365,0,0,0,7.355-7.355V88.258H50.967l-.919,3.677H44.129a1.839,1.839,0,0,0-1.839,1.839V99.29a1.839,1.839,0,0,0,1.839,1.839h64.355a7.365,7.365,0,0,0,7.355-7.355V45.968a7.364,7.364,0,0,0-7.355-7.355ZM31.258,93.774a3.682,3.682,0,0,1-3.677,3.677H9.194a3.682,3.682,0,0,1-3.677-3.677V64.355a3.682,3.682,0,0,1,3.677-3.677h2.351l1.42,4.259a1.839,1.839,0,0,0,1.744,1.257h7.355a1.839,1.839,0,0,0,1.745-1.257l1.42-4.259h2.351a3.682,3.682,0,0,1,3.677,3.677Zm-15.836-33.1h5.93l-.614,1.839h-4.7Zm19.513,23.9V79.065h33.1v5.516Zm33.1,3.677v3.677h-.4l-.919-3.677Zm-4.195,3.677h-10l.919-3.677h8.159Zm-17.87,5.516V95.613h22.3a7.348,7.348,0,0,0,.758,1.839ZM68.032,45.968V75.387h-33.1V64.355A7.365,7.365,0,0,0,27.581,57H16.548V23.9a3.682,3.682,0,0,1,3.677-3.677H97.452a3.682,3.682,0,0,1,3.677,3.677v14.71H75.387A7.364,7.364,0,0,0,68.032,45.968Zm44.129,47.806a3.682,3.682,0,0,1-3.677,3.677h-33.1a3.682,3.682,0,0,1-3.677-3.677V45.968a3.682,3.682,0,0,1,3.677-3.677h33.1a3.682,3.682,0,0,1,3.677,3.677Z" fill="#364049"/>
        <path id="Path_14117" data-name="Path 14117" d="M108.484,44.129h-33.1a1.839,1.839,0,0,0-1.839,1.839v42.29A1.839,1.839,0,0,0,75.387,90.1h33.1a1.839,1.839,0,0,0,1.839-1.839V45.968A1.839,1.839,0,0,0,108.484,44.129Zm-1.839,42.29H77.226V47.806h29.419Z" fill="#364049"/>
        <circle id="Ellipse_317" data-name="Ellipse 317" cx="1.839" cy="1.839" r="1.839" transform="translate(88.258 91.935)" fill="#364049"/>
      </g>
    </g>
  </g>
</svg>
